<svg id="Group_143" data-name="Group 143" xmlns="http://www.w3.org/2000/svg" xmlns:xlink="http://www.w3.org/1999/xlink" width="143.797" height="143.86" viewBox="0 0 143.797 143.86">
  <defs>
    <clipPath id="clip-path">
      <rect id="Rectangle_88" data-name="Rectangle 88" width="143.797" height="143.86" fill="#fff"/>
    </clipPath>
  </defs>
  <path id="Path_115" data-name="Path 115" d="M97.8,17.11l-.828-4.353,1.229-.588,1.363,8.018-1.149.55-3.993-4.861,1.288,6.155-1.159.555-5.357-6.108,1.258-.6,2.83,3.4,1.052,1.335-.378-1.658-.887-4.324,1.248-.6,2.8,3.409,1.043,1.34Z" transform="translate(-52.905 -7.218)" fill="#fff"/>
  <path id="Path_116" data-name="Path 116" d="M123.062,10.615l.659,2.245,4.206-1.234.319,1.085-5.481,1.609-2.2-7.5,5.387-1.581.319,1.085-4.112,1.207.585,1.992,3.741-1.1.321,1.1Z" transform="translate(-71.51 -3.105)" fill="#fff"/>
  <g id="Group_142" data-name="Group 142">
    <g id="Group_141" data-name="Group 141" clip-path="url(#clip-path)">
      <path id="Path_117" data-name="Path 117" d="M160.576,8.259a3.571,3.571,0,0,1-2.378-.52,2.659,2.659,0,0,1-1.06-1.928l1.293-.094q.237,1.591,2.078,1.457a2.184,2.184,0,0,0,1.243-.4,1.017,1.017,0,0,0,.379-.914.908.908,0,0,0-.382-.71,2.6,2.6,0,0,0-1.116-.359l-1.293-.2q-2.084-.322-2.2-1.954A2.186,2.186,0,0,1,157.758.9,3.042,3.042,0,0,1,159.8.088a3.334,3.334,0,0,1,2.206.5A2.465,2.465,0,0,1,163.04,2.33l-1.282.094a1.445,1.445,0,0,0-.617-.979,1.979,1.979,0,0,0-1.27-.271,1.843,1.843,0,0,0-1.1.383.966.966,0,0,0-.345.846q.056.778,1.2.936l1.493.233q2.216.345,2.343,2.076a2.123,2.123,0,0,1-.678,1.8,3.534,3.534,0,0,1-2.215.812" transform="translate(-93.2 -0.044)" fill="#fff"/>
      <path id="Path_118" data-name="Path 118" d="M181.944,4.429l-.156,2.335,4.373.292-.075,1.129-5.7-.38.52-7.8,5.6.373L186.433,1.5l-4.275-.285-.138,2.072,3.891.26-.076,1.14Z" transform="translate(-106.995 0)" fill="#fff"/>
      <path id="Path_119" data-name="Path 119" d="M203.871,6.881,203.4,9.173l4.292.889-.23,1.108-5.593-1.159,1.587-7.659,5.5,1.139L208.719,4.6l-4.2-.869L204.1,5.762l3.818.791-.232,1.118Z" transform="translate(-119.735 -1.395)" fill="#fff"/>
      <path id="Path_120" data-name="Path 120" d="M229.186,17.61l-1.561-.562-1.265-4.5-1.29.6-.949,2.636-1.251-.451,2.651-7.358,1.25.45-1.157,3.214,4.32-2.075,1.623.584-4.01,1.895Z" transform="translate(-132.195 -4.731)" fill="#fff"/>
      <path id="Path_121" data-name="Path 121" d="M260.82,22.895l5.328,3.331-.623,1-2.1-1.31-3.523,5.635-1.127-.7,3.523-5.636L260.2,23.891Z" transform="translate(-153.493 -13.58)" fill="#fff"/>
      <path id="Path_122" data-name="Path 122" d="M275.907,46.351a3.394,3.394,0,0,1-1.282-2.587,4.255,4.255,0,0,1,1.126-2.958,4.175,4.175,0,0,1,2.694-1.58,3.46,3.46,0,0,1,2.747.848,3.52,3.52,0,0,1,1.329,2.583,4.2,4.2,0,0,1-1.1,2.924,4.257,4.257,0,0,1-2.723,1.614,3.471,3.471,0,0,1-2.793-.843m-.029-2.61a2.083,2.083,0,0,0,.788,1.725,2.111,2.111,0,0,0,1.843.489,3.369,3.369,0,0,0,1.889-1.238,3.276,3.276,0,0,0,.863-2.031,2.138,2.138,0,0,0-.81-1.716,2.087,2.087,0,0,0-1.82-.5,3.281,3.281,0,0,0-1.854,1.2,3.371,3.371,0,0,0-.9,2.073" transform="translate(-162.89 -23.249)" fill="#fff"/>
      <path id="Path_123" data-name="Path 123" d="M304.321,64.655l1.708,2.275a3.415,3.415,0,0,1,.805,2.747,5.1,5.1,0,0,1-4.637,3.475,3.375,3.375,0,0,1-2.417-1.517l-1.715-2.284Zm-4.552,5.079.838,1.116a2.23,2.23,0,0,0,1.613,1.042,4.258,4.258,0,0,0,3.39-2.566,2.359,2.359,0,0,0-.593-1.9l-.784-1.045Z" transform="translate(-176.796 -38.35)" fill="#fff"/>
      <path id="Path_124" data-name="Path 124" d="M315.076,89.018l-2.052,1.125,2.107,3.844-.993.544-2.745-5.009,6.859-3.759,2.7,4.923-.993.544L317.9,87.472l-1.82,1,1.874,3.42-1,.549Z" transform="translate(-184.701 -50.869)" fill="#fff"/>
      <path id="Path_125" data-name="Path 125" d="M329.036,108.555l-6.2,2.4,1.424,3.678-1.1.425-1.9-4.917,7.292-2.825Z" transform="translate(-190.555 -63.654)" fill="#fff"/>
      <rect id="Rectangle_86" data-name="Rectangle 86" width="7.821" height="1.329" transform="translate(133.434 54.241) rotate(-15.466)" fill="#fff"/>
      <path id="Path_126" data-name="Path 126" d="M335.313,144.879l4.635.715.225,1.388-8.158-1.433L331.8,144.2l7.28-3.957.231,1.42-4.165,2.17-1.78.824Z" transform="translate(-196.803 -83.187)" fill="#fff"/>
      <path id="Path_127" data-name="Path 127" d="M337.421,167.74l-2.339.05.092,4.382-1.131.024-.121-5.711,7.82-.166.119,5.612-1.131.024-.091-4.283-2.076.044.083,3.9-1.142.024Z" transform="translate(-198.064 -98.651)" fill="#fff"/>
      <path id="Path_128" data-name="Path 128" d="M334.545,194.31l-2.5.007.164-1.352,2.054.039a1.3,1.3,0,0,0,.926-.242,1.4,1.4,0,0,0,.376-.906l.23-1.9-3.173-.385.16-1.319,7.764.942-.438,3.61a2.581,2.581,0,0,1-.784,1.72,1.982,1.982,0,0,1-1.6.437,2.028,2.028,0,0,1-1.193-.521,1.9,1.9,0,0,1-.553-1.14,1.379,1.379,0,0,1-1.428,1.011m2.349-4.219-.229,1.887a1.7,1.7,0,0,0,.191,1.158,1.132,1.132,0,0,0,.859.5,1.072,1.072,0,0,0,.874-.232,1.42,1.42,0,0,0,.418-.939l.253-2.083Z" transform="translate(-196.949 -111.661)" fill="#fff"/>
      <path id="Path_129" data-name="Path 129" d="M237.041,322.711l.729,4.371-1.242.559-1.18-8.047,1.161-.524,3.882,4.95-1.147-6.183,1.172-.528,5.217,6.228-1.272.573-2.752-3.459-1.022-1.358.341,1.666.789,4.344-1.262.568-2.722-3.473-1.012-1.363Z" transform="translate(-139.594 -188.211)" fill="#fff"/>
      <path id="Path_130" data-name="Path 130" d="M215.537,330.675l-.608-2.26-4.233,1.139-.294-1.092,5.516-1.484,2.032,7.553-5.421,1.458-.294-1.093,4.138-1.113-.54-2.005-3.765,1.013-.3-1.1Z" transform="translate(-124.799 -193.945)" fill="#fff"/>
      <path id="Path_131" data-name="Path 131" d="M179.87,333.439a3.571,3.571,0,0,1,2.366.574,2.658,2.658,0,0,1,1.016,1.951l-1.294.065q-.2-1.6-2.045-1.5a2.185,2.185,0,0,0-1.251.376,1.018,1.018,0,0,0-.4.906.907.907,0,0,0,.366.718,2.6,2.6,0,0,0,1.108.385l1.287.232q2.076.369,2.158,2a2.184,2.184,0,0,1-.662,1.716,3.041,3.041,0,0,1-2.063.764,3.332,3.332,0,0,1-2.194-.55,2.466,2.466,0,0,1-.991-1.765l1.284-.065a1.446,1.446,0,0,0,.594.993,1.981,1.981,0,0,0,1.264.3,1.84,1.84,0,0,0,1.1-.358.965.965,0,0,0,.364-.837q-.038-.78-1.181-.964l-1.487-.266q-2.208-.4-2.3-2.129a2.122,2.122,0,0,1,.719-1.785,3.536,3.536,0,0,1,2.233-.761" transform="translate(-104.935 -197.772)" fill="#fff"/>
      <path id="Path_132" data-name="Path 132" d="M158.571,336.72l.209-2.33L154.414,334l.1-1.127,5.69.509-.7,7.79-5.591-.5.1-1.127,4.267.382.185-2.068-3.884-.348.1-1.138Z" transform="translate(-91.294 -197.441)" fill="#fff"/>
      <path id="Path_133" data-name="Path 133" d="M135.329,332.851l.526-2.28-4.271-.986.255-1.1,5.565,1.285-1.76,7.621-5.469-1.263.255-1.1,4.174.964.467-2.023-3.8-.878.258-1.113Z" transform="translate(-77.213 -194.837)" fill="#fff"/>
      <path id="Path_134" data-name="Path 134" d="M107.962,320.338l1.547.6,1.162,4.523,1.3-.568,1.009-2.613,1.24.478-2.817,7.3-1.24-.478,1.23-3.187-4.366,1.977-1.609-.621,4.052-1.8Z" transform="translate(-62.53 -190.006)" fill="#fff"/>
      <path id="Path_135" data-name="Path 135" d="M78.415,315.937l-5.251-3.451.645-.983,2.066,1.357,3.65-5.554,1.111.73-3.65,5.554,2.075,1.363Z" transform="translate(-43.397 -182.277)" fill="#fff"/>
      <path id="Path_136" data-name="Path 136" d="M63.094,292.97a3.391,3.391,0,0,1,1.224,2.616,4.256,4.256,0,0,1-1.193,2.931,4.168,4.168,0,0,1-2.73,1.519,3.458,3.458,0,0,1-2.727-.91,3.52,3.52,0,0,1-1.27-2.613,4.2,4.2,0,0,1,1.164-2.9,4.259,4.259,0,0,1,2.758-1.551,3.472,3.472,0,0,1,2.773.907m-.03,2.609a2.084,2.084,0,0,0-.748-1.743,2.116,2.116,0,0,0-1.832-.531,3.37,3.37,0,0,0-1.917,1.2,3.277,3.277,0,0,0-.908,2.011,2.135,2.135,0,0,0,.771,1.734,2.087,2.087,0,0,0,1.809.54,3.282,3.282,0,0,0,1.881-1.154,3.369,3.369,0,0,0,.944-2.052" transform="translate(-33.452 -173.222)" fill="#fff"/>
      <path id="Path_137" data-name="Path 137" d="M33.794,273.3l-1.656-2.313a3.415,3.415,0,0,1-.743-2.765,4.214,4.214,0,0,1,1.838-2.424,4.209,4.209,0,0,1,2.877-.945,3.375,3.375,0,0,1,2.381,1.571l1.663,2.323Zm4.666-4.975-.812-1.135a2.232,2.232,0,0,0-1.589-1.078,3.256,3.256,0,0,0-2.046.775,3.227,3.227,0,0,0-1.4,1.712,2.358,2.358,0,0,0,.55,1.91l.761,1.063Z" transform="translate(-18.584 -157.089)" fill="#fff"/>
      <path id="Path_138" data-name="Path 138" d="M22.537,248.377l2.077-1.078-2.018-3.89,1-.521,2.631,5.071-6.942,3.6L16.7,246.577l1-.521,1.973,3.8,1.843-.957-1.8-3.462,1.014-.526Z" transform="translate(-9.907 -144.067)" fill="#fff"/>
      <path id="Path_139" data-name="Path 139" d="M11.5,230.052l6.25-2.26-1.341-3.709,1.106-.4,1.792,4.959L11.954,231.3Z" transform="translate(-6.822 -132.676)" fill="#fff"/>
      <rect id="Rectangle_87" data-name="Rectangle 87" width="7.822" height="1.329" transform="translate(2.028 88.777) rotate(-14.155)" fill="#fff"/>
      <path id="Path_140" data-name="Path 140" d="M5.353,194.849.736,194.03l-.194-1.393,8.123,1.617.189,1.35-7.369,3.79-.2-1.425L5.5,195.894l1.8-.784Z" transform="translate(-0.321 -114.261)" fill="#fff"/>
      <path id="Path_141" data-name="Path 141" d="M4.352,173.465l2.34,0,.007-4.383,1.131,0L7.822,174.8,0,174.788l.009-5.613,1.131,0-.007,4.284,2.076,0,.006-3.9,1.142,0Z" transform="translate(0 -100.292)" fill="#fff"/>
      <path id="Path_142" data-name="Path 142" d="M6.871,145.534l2.5.05-.194,1.348-2.052-.085a1.306,1.306,0,0,0-.931.221,1.4,1.4,0,0,0-.4.9l-.273,1.892,3.164.457-.19,1.315L.758,150.511l.52-3.6a2.581,2.581,0,0,1,.823-1.7,1.981,1.981,0,0,1,1.612-.4,2.03,2.03,0,0,1,1.181.548,1.9,1.9,0,0,1,.527,1.153,1.38,1.38,0,0,1,1.451-.978M4.427,149.7l.271-1.881a1.7,1.7,0,0,0-.165-1.162,1.131,1.131,0,0,0-.846-.516,1.074,1.074,0,0,0-.88.212,1.423,1.423,0,0,0-.44.93l-.3,2.077Z" transform="translate(-0.45 -85.877)" fill="#fff"/>
      <path id="Path_143" data-name="Path 143" d="M40.615,74.455a2.848,2.848,0,1,1-2.848-2.848,2.848,2.848,0,0,1,2.848,2.848" transform="translate(-20.712 -42.473)" fill="#fff"/>
      <path id="Path_144" data-name="Path 144" d="M311.115,270.788a2.848,2.848,0,1,1-2.848-2.848,2.848,2.848,0,0,1,2.848,2.848" transform="translate(-181.157 -158.927)" fill="#fff"/>
    </g>
  </g>
</svg>
